<svg height="320pt" preserveAspectRatio="xMidYMid meet" viewBox="0 0 320 320" width="320pt" xmlns="http://www.w3.org/2000/svg"><g transform="matrix(.1 0 0 -.1 0 320)"><path d="m1479 3103c-6-16-30-83-54-151s-45-126-48-128c-3-3-76 42-163 100s-160 104-162 101c-2-2 6-65 18-140s19-139 17-141c-3-3-33 15-68 39-58 40-140 87-153 87-3 0 6-17 20-37 31-46 83-148 113-225l23-57 48 24c279 141 644 188 938 120 35-8 67-15 71-15s13 39 20 88c6 48 24 124 39 169 34 99 28 98-85-20l-81-85-6 57c-3 31-8 99-12 151l-7 95-136-144-136-143-89 141c-49 78-91 141-93 141s-8-12-14-27z"/><path d="m1479 2625c-97-16-171-37-288-82l-95-36 50-22c45-20 124-94 124-117 0-11 0-11-48 12-91 44-192 18-233-60-26-48-25-153 1-222 11-28 17-54 15-57-11-11-86 75-102 117-18 48-22 126-10 186l8 38-33-23c-50-35-210-197-254-259-51-69-114-174-114-188 0-6 26-14 58-18 31-3 60-8 64-11 4-2-18-41-49-86-66-96-120-207-162-333-30-90-59-229-50-238 3-3 54 10 114 29s110 33 111 32c2-1-1-20-6-42-30-141-18-421 25-590 24-94 58-175 75-175 32 0 218 194 323 339l61 84 18-69c40-156 41-355 3-563-10-50-15-97-12-105 8-20 141-72 236-91 113-23 342-16 453 13 99 27 210 73 290 122 42 25 65 34 69 26 4-6 14-44 24-83 9-40 20-73 23-73 9 0 115 82 166 130 161 148 285 387 312 597l7 57 54-58c30-32 56-56 59-53 3 2 18 58 35 123 87 341 28 662-184 1002l-52 83-10-36-10-35-50 50c-46 47-48 50-32 68 21 23 21 35 1 78-19 40-48 45-87 14-33-26-38-25-93 10-26 16-49 28-51 26-11-10 96-141 150-184 34-28 73-62 87-77l25-28-25 8c-52 16-233 17-278 2l-44-15-94 96c-100 104-109 124-79 182 15 28 14 30-3 30-11 0-36-11-56-25l-37-25-30 21c-43 31-144 69-181 69-35 0-120-36-170-72l-31-21 22-18c45-36 128-59 216-59 46 0 96-5 110-10 32-12 146-112 182-159l26-34-29 7c-16 4-121 11-234 15-196 6-207 8-256 33-64 34-121 99-135 154-11 44-26 54-81 54-16 0-28 4-28 9 0 16 94 93 140 114 25 12 47 23 50 25 2 1-9 14-25 27l-30 25 25 20c73 60 285 140 371 140 33 0 159-66 248-130 16-11 33-20 39-20 11 0 28 39 37 88 5 26 11 32 23 27 42-15 182-106 259-168 47-38 82-60 78-50-12 26-63 184-69 213-6 28-82 87-166 130-61 30-219 85-226 77-2-2 2-30 11-62 8-32 13-60 11-62s-28 20-57 48c-30 29-74 65-98 81-44 27-48 28-185 27-78-1-175-7-217-14zm699-914c15-10 51-30 80-45l52-26v-85-85l-82-62c-97-72-211-129-272-135l-43-5-72 130c-39 71-71 135-71 140 0 23 191 140 282 172 67 24 93 25 126 1zm370-16c24-53 45-187 38-252-7-64-32-143-45-143-4 0-14 15-23 33-8 17-36 55-62 83l-46 52v85 85l57 41c32 23 61 41 64 41s11-11 17-25zm-119-431c11-14 27-45 37-70 16-43 16-46-6-106-12-35-35-81-50-103-30-43-88-101-93-94-2 2-9 42-15 88-7 46-14 86-16 88s-26-12-54-31c-48-32-148-73-157-64s-85 151-85 159c0 5 8 9 18 9 27 0 130 53 202 104 62 43 69 46 132 46 60 0 69-3 87-26z"/></g></svg>